<?xml version="1.0" encoding="UTF-8"?>
<svg id="Layer_1" data-name="Layer 1" xmlns="http://www.w3.org/2000/svg" viewBox="0 0 1080 1080">
  <defs>
    <style>
      .cls-1 {
        fill: #336c79;
      }

      .cls-1, .cls-2, .cls-3 {
        stroke-width: 0px;
      }

      .cls-2 {
        fill: none;
      }

      .cls-3 {
        fill: #4e9dab;
      }
    </style>
  </defs>
  <path class="cls-2" d="m265.9,693.08c-.24-.39-.46-.8-.7-1.21m-67.61-305.3c8.23,18.13,18.7,35.71,31.36,52.7"/>
  <path class="cls-1" d="m893.29,540c0,201.43-163.29,364.73-364.73,364.73-59.26,0-115.21-14.13-164.67-39.2h152.69l1.72-9.68c3.41.12,6.83.17,10.26.17,174.52,0,316.02-141.49,316.02-316.02s-141.49-316.02-316.02-316.02c-4.86,0-9.68.1-14.47.34-.07-.32-.15-.65-.24-.97l-2.35-8.88h-147.61c49.46-25.07,105.41-39.2,164.67-39.2,201.43,0,364.73,163.29,364.73,364.73Z"/>
  <path class="cls-3" d="m440.91,781.55h-184.46c-.44-14.91.85-27.24,2.23-36.03,1.76-11.28,3.46-21.7,6.7-30.54.34-.94.7-1.86,1.07-2.76.37-.9.77-1.79,1.19-2.64.29-.61.6-1.21.92-1.81.95-1.79,2.01-3.48,3.19-5.08,2.23-3.03,4.89-5.73,8.11-8.01,1.19-.85,2.39-1.6,3.56-2.23,4.21-2.34,8.25-3.49,11.27-4.12h34.84c2.78-1.4,9.15-5.08,13.91-12.71.77-1.24,1.43-2.47,1.98-3.68,2.93-6.31,3.26-11.93,3.26-14.55.14,2.22.58,6.41,2.44,11.27,1.11,2.9,2.71,6.02,5.04,9.08,4.45,5.86,9.65,9.03,12.7,10.6h31.79c5.01.43,12.19,1.79,19.07,6.36,15.2,10.04,18.42,28.62,21.2,44.48,1.65,9.6,3.03,24.32,0,42.39Z"/>
  <path class="cls-3" d="m426.07,376.84c-.75,3.49-2.05,8.71-4.23,14.83-3.07,8.56-10.79,26.98-44.5,61.46-7.72,7.89-18.37,18.22-31.79,29.66-12.51-9.51-30.61-25.36-47.31-48.91l-.02-.02s-20.26-29.93-21.93-38.59c-2.33-5.3-4.38-10.45-6.14-15.41-1.86-5.18-3.43-10.17-4.74-14.88-2.06-7.36-3.54-14.08-4.62-19.92,5.76-2.86,14.54-6.48,25.7-8.2.61-.1,1.23-.19,1.84-.27,2.51-.32,7.82-.92,14.96-.63,5.4.22,11.88.97,18.94,2.74,32.38,8.13,36.42,27.47,65.68,36.03,8.08,2.35,20.83,4.69,38.14,2.11Z"/>
  <path class="cls-1" d="m506.6,321.76c-.36,1.94-.73,3.85-1.14,5.76-23.09,108.5-125.85,160.68-140.83,167.98,18.56-14.2,57.49-48.01,80.51-105.94,18.01-45.32,18.42-85.56,16.96-108.07h-226.73c-.39,6.34-.63,13.92-.41,22.53.15,5.61.49,11.64,1.12,18.03,1.01,10.35,2.78,21.64,5.64,33.61,2.71,11.28,6.1,21.88,9.99,31.84,1.91,4.89,3.94,9.61,6.08,14.2,19.7,42.35,48.06,72.14,68.68,93.81,18.15,19.07,46.53,45.28,86.87,69.93-14.9-6.37-108.77-48.11-170.94-128.34-2.91-3.75-5.74-7.58-8.5-11.5-11.45-16.28-21.51-34-29.35-53.21-2.03-4.91-3.89-9.92-5.59-15.02-4.67-13.98-8.16-28.67-10.21-44.09-3.05-23.03-3.48-52.37,4.24-86.87h309.33c.87,3.29,1.72,6.77,2.51,10.43,1.55,7.11,2.9,14.9,3.82,23.28,2.01,18.15,2.06,39.05-2.06,61.65Z"/>
  <path class="cls-1" d="m510.43,822.03c-.44,6.83-1.16,13.96-2.22,21.37-.46,3.34-1.01,6.73-1.62,10.19H195.11c-3.44-13.82-7.38-35.26-6.36-61.44.95-24.13,5.88-45.91,12.75-65.04,1.77-4.99,3.7-9.82,5.73-14.44,9.08-20.84,20.13-37.87,29.79-50.55,3.03-3.99,5.95-7.55,8.61-10.67v-.02c5.95-6.95,10.69-11.67,13.06-13.98,13.92-13.55,37.99-33.54,74.16-48.74-16.98,12.99-50.87,42.28-74.14,91.32-2.15,4.5-4.19,9.17-6.12,14.03-.09.2-.17.41-.26.61-9.2,23.18-13.79,45.03-15.85,63.78-.72,6.29-1.12,12.22-1.33,17.74v.02c-.38,9.44-.17,17.67.22,24.41h226.73c3.39-39.27-2.76-69.64-8.49-89-19.17-65-62.5-105.24-97.45-137.73-27.46-25.48-53.24-43.38-72.04-55.08,21.61,7.96,55.22,22.57,91.1,48.73,28.94,21.12,106.04,77.36,129.26,177.98.41,1.77.82,3.66,1.24,5.64v.02c3.48,16.86,6.68,41.02,4.72,70.85Z"/>
  <g>
    <path class="cls-1" d="m549.15,272.64v50.11c0,6.15-4.99,11.13-11.15,11.13-4.64,0-8.61-2.83-10.29-6.85v-.02c-.55-1.31-.84-2.74-.84-4.26v-50.11c0-3.51,1.62-6.65,4.16-8.68v-.02c1.91-1.52,4.33-2.44,6.97-2.44,6.15,0,11.15,4.98,11.15,11.13Z"/>
    <path class="cls-1" d="m549.15,757.01v50.11c0,6.15-4.99,11.15-11.15,11.15-1.93,0-3.73-.49-5.32-1.35-3.46-1.89-5.81-5.57-5.81-9.8v-50.11c0-1.77.41-3.46,1.16-4.94,1.81-3.66,5.59-6.19,9.97-6.19,6.15,0,11.15,4.98,11.15,11.13Z"/>
    <g>
      <path class="cls-1" d="m769.08,679.07c-2.06,3.58-5.79,5.57-9.65,5.57-1.89,0-3.82-.49-5.56-1.5l-43.41-25.05c-5.32-3.07-7.14-9.89-4.07-15.2,3.08-5.33,9.89-7.16,15.22-4.09l43.39,25.05c5.33,3.08,7.16,9.89,4.07,15.22Z"/>
      <path class="cls-1" d="m769.08,679.07c-2.06,3.58-5.79,5.57-9.65,5.57-1.89,0-3.82-.49-5.56-1.5l-43.41-25.05c-5.32-3.07-7.14-9.89-4.07-15.2,3.08-5.33,9.89-7.16,15.22-4.09l43.39,25.05c5.33,3.08,7.16,9.89,4.07,15.22Z"/>
    </g>
    <g>
      <path class="cls-1" d="m765.01,415.91l-43.39,25.05c-1.76,1.01-3.66,1.48-5.56,1.48-3.85,0-7.6-1.99-9.66-5.56-3.07-5.33-1.24-12.13,4.07-15.22l43.41-25.05c5.3-3.07,12.13-1.24,15.2,4.09,3.08,5.32,1.26,12.13-4.07,15.2Z"/>
      <path class="cls-1" d="m765.01,415.91l-43.39,25.05c-1.76,1.01-3.66,1.48-5.56,1.48-3.85,0-7.6-1.99-9.66-5.56-3.07-5.33-1.24-12.13,4.07-15.22l43.41-25.05c5.3-3.07,12.13-1.24,15.2,4.09,3.08,5.32,1.26,12.13-4.07,15.2Z"/>
    </g>
    <path class="cls-3" d="m653.77,629.63l-13.72-1.33-45.95-4.43,10.94-15.34-83.49-59.58c-.26-.19-.38-.46-.61-.65-.6-.51-1.07-1.06-1.55-1.67-.44-.56-.84-1.09-1.16-1.7-.32-.61-.53-1.26-.72-1.94-.22-.73-.39-1.45-.44-2.22-.03-.31-.19-.56-.19-.89v-102.58h-18.85l23.09-40,6.89-11.91,29.98,51.91h-18.83v96.86l78.82,56.26,10.94-15.34,24.78,54.42.07.14Z"/>
  </g>
</svg>